{"title":"The.Second.City.First.Family.of.Comedy.2006.Part2.DVDRip.XviD-Fi","uid":6175119,"size":747103666,"categoryP":"video","categoryS":"movies","magnet":"?xt=urn:btih:78603b6e5272b830d31f724b0cf6f77c1363b8bc&amp;dn=The.Second.City.First.Family.of.Comedy.2006.Part2.DVDRip.XviD-Fi&amp;tr=udp%3A%2F%2Ftracker.openbittorrent.com%3A80&amp;tr=udp%3A%2F%2Fopen.demonii.com%3A1337&amp;tr=udp%3A%2F%2Ftracker.coppersurfer.tk%3A6969&amp;tr=udp%3A%2F%2Fexodus.desync.com%3A6969","seeders":0,"leechers":1,"uploader":"sceneline","files":54,"time":1297745342,"description":"- &lt;a href=&quot;\nhttp://www.torrentkit.com&quot; rel=&quot;nofollow&quot; target=&quot;_NEW&quot;&gt;\nhttp://www.torrentkit.com&lt;/a&gt;  \n\nwho care what we share! support us by seeding back,\nand don't forget to visit www.torrentkit.com\n-                                             \n                               \n                                 \n                                      \n                                      \n                                       \n    CoaX!&lt;CPH&gt;                         \n                               \n                         \n                            \n          \n    Team FiCO &lt;Final Coalition&gt; 2k8 Presents:    \n    \n\nThe.Second.City.First.Family.of.Comedy.2006.Part2.DVDRip.XviD-FiCO &lt;a href=&quot;\nhttp://www.imdb.com/title/tt0940640/&quot; rel=&quot;nofollow&quot; target=&quot;_NEW&quot;&gt;\nhttp://www.imdb.com/title/tt0940640/&lt;/a&gt;\nSubtitles: None\nDate: 2011.02\n\nDirector: Sharon Bartlett\nGenre: Documentary\nPlot: An uproarious behind-the-scenes look at Chicago's famed Second City \ncomedy club and troupe, this retrospective spans from the group's early days \nto the hit &quot;SCTV&quot; series and beyond as it tickles with reminiscences from Dan \nAykroyd, Tina Fey, Martin Short, Alan Arkin and Mike Meyers. Footage of Jim \nBelushi, Bill Murray, Gilda Radner, John Candy, Eugene Levy and other alumni \naffirms Second City's place in comedy history.\n\nCast:\n    James Belushi, Dan Aykroyd, Tina Fey, Alan Arkin, Mike Myers, Harold \nRamis, Martin Short, Ryan Stiles \n\nStats:\nGeneral\nFormat                           : AVI\nFormat/Info                      : Audio Video Interleave\nFile size                        : 697 MiB\nDuration                         : 42mn 50s\nOverall bit rate                 : 2 275 Kbps\nWriting application              : VirtualDubMod 1.5.10.2 (build 2542/release)\nWriting library                  : VirtualDubMod build 2542/release\n\nVideo\nID                               : 0\nFormat                           : MPEG-4 Visual\nFormat profile                   : Advanced Simple@L5\nFormat settings, BVOP            : Yes\nFormat settings, QPel            : No\nFormat settings, GMC             : No warppoints\nFormat settings, Matrix          : Default (H.263)\nCodec ID                         : XVID\nCodec ID/Hint                    : XviD\nDuration                         : 42mn 50s\nBit rate                         : 2 071 Kbps\nWidth                            : 640 pixels\nHeight                           : 480 pixels\nDisplay aspect ratio             : 4:3\nFrame rate                       : 29.970 fps\nResolution                       : 8 bits\nColorimetry                      : 4:2:0\nScan type                        : Progressive\nBits/(Pixel*Frame)               : 0.225\nStream size                      : 635 MiB (91%)\nWriting library                  : XviD 1.2.1 (UTC 2008-12-04)\n\nAudio\nID                               : 1\nFormat                           : AC-3\nFormat/Info                      : Audio Coding 3\nFormat_Settings_ModeExtension    : CM (complete main)\nCodec ID                         : 2000\nDuration                         : 42mn 50s\nBit rate mode                    : Constant\nBit rate                         : 192 Kbps\nChannel(s)                       : 2 channels\nChannel positions                : Front: L R\nSampling rate                    : 48.0 KHz\nStream size                      : 58.8 MiB (8%)\nAlignment                        : Split accross interleaves\nInterleave, duration             : 33 ms (1.00 video frame)\nInterleave, preload duration     : 500 ms\n\n\n\n\nRelease notes:\nenjoy!\n\n\n                                                                     \n                                                             \n                                                               \n                                                               \n                       \n      \n              Greetz from Team FiCO:               \n              \n                                                             \n                                                             \n           BLooDWeiSeR,CULTXviD,SiCK,DoNE,LAP,TH30R1STS              \n                                                                             \n               WinBeta, DvF, WASTE, BERC, KALEVALA, Jiggly                   \n                                                                             \n                                                             \n                                       \n                             \n                      \n                  \n           \n            \n                    \n                  \n                \n                            \n                                        \n                                        \n                                            \n                                                    \n                                                              \n                      you know where to find us...                     \n                        \n   NFO By: CoaXCable/CoolPHat &lt;#CPH&gt;","torrent":{"xt":"urn:btih:78603b6e5272b830d31f724b0cf6f77c1363b8bc","amp;dn":"The.Second.City.First.Family.of.Comedy.2006.Part2.DVDRip.XviD-Fi","amp;tr":["udp%3A%2F%2Ftracker.openbittorrent.com%3A80","udp%3A%2F%2Fopen.demonii.com%3A1337","udp%3A%2F%2Ftracker.coppersurfer.tk%3A6969","udp%3A%2F%2Fexodus.desync.com%3A6969"],"infoHash":"78603b6e5272b830d31f724b0cf6f77c1363b8bc","infoHashBuffer":{"type":"Buffer","data":[120,96,59,110,82,114,184,48,211,31,114,75,12,246,247,124,19,99,184,188]},"announce":[],"urlList":[]}}